<svg width="24" height="24" viewBox="0 0 24 24" fill="none" xmlns="http://www.w3.org/2000/svg">
<path d="M11.38 4.50002V4.50004L11.3835 4.50001C11.4767 4.49936 11.5682 4.52477 11.6477 4.57336C11.7268 4.62174 11.791 4.69118 11.8329 4.77392C11.8331 4.77428 11.8333 4.77465 11.8335 4.77501L12.5522 6.22239L12.69 6.50002H13H18C18.1326 6.50002 18.2598 6.5527 18.3536 6.64647C18.4473 6.74024 18.5 6.86742 18.5 7.00002V15C18.5 15.1326 18.4473 15.2598 18.3536 15.3536C18.2598 15.4473 18.1326 15.5 18 15.5H12.611C12.5188 15.4996 12.4286 15.4738 12.3502 15.4254C12.272 15.377 12.2086 15.3081 12.1671 15.2261C12.1669 15.2257 12.1667 15.2254 12.1665 15.225L11.4478 13.7777L11.31 13.5H11H6H5.5V14V20C5.5 20.1326 5.44732 20.2598 5.35355 20.3536C5.25979 20.4473 5.13261 20.5 5 20.5C4.86739 20.5 4.74021 20.4473 4.64645 20.3536C4.55268 20.2598 4.5 20.1326 4.5 20V5.00002C4.5 4.86742 4.55268 4.74024 4.64645 4.64647C4.74022 4.5527 4.86739 4.50002 5 4.50002H11.38ZM6 5.50002H5.5V6.00002V12V12.5H6H11.691L12.5528 14.2236L12.691 14.5H13H17H17.5V14V8.00002V7.50002H17H12.309L11.4472 5.77642L11.309 5.50002H11H6Z" fill="#00204A" stroke="#00204A"/>
</svg>
