<svg width="24" height="24" viewBox="0 0 24 24" fill="none" xmlns="http://www.w3.org/2000/svg">
<path d="M10.3644 3.30087L3.27344 10.3759C3.09429 10.5656 2.99623 10.8178 3.00011 11.0787C3.00399 11.3396 3.10951 11.5887 3.29423 11.773C3.47895 11.9574 3.72828 12.0624 3.98921 12.0657C4.25015 12.069 4.50208 11.9704 4.69144 11.7909L5.40044 11.0829L8.94644 14.6199C9.22621 14.898 9.44823 15.2287 9.59972 15.593C9.75122 15.9572 9.82922 16.3479 9.82922 16.7424C9.82922 17.1369 9.75122 17.5275 9.59972 17.8918C9.44823 18.256 9.22621 18.5867 8.94644 18.8649L10.3644 20.2799L14.5984 16.0569L19.5624 21.0079H20.9804V19.5929L16.0164 14.6409L20.2924 10.3749L18.8744 8.95987C18.31 9.52381 17.5448 9.84059 16.7469 9.84059C15.9491 9.84059 15.1839 9.52381 14.6194 8.95987L11.0734 5.42187L11.7834 4.71487C11.8775 4.62195 11.9523 4.51133 12.0034 4.38939C12.0545 4.26745 12.081 4.1366 12.0813 4.00438C12.0816 3.87215 12.0557 3.74118 12.0052 3.619C11.9547 3.49681 11.8804 3.38584 11.7868 3.29248C11.6932 3.19912 11.582 3.12521 11.4597 3.07501C11.3374 3.02482 11.2063 2.99933 11.0741 3.00001C10.9419 3.0007 10.8111 3.02755 10.6893 3.07901C10.5675 3.13048 10.4571 3.20654 10.3644 3.30087Z" fill="#00204A"/>
</svg>
