<svg width="24" height="24" viewBox="0 0 24 24" fill="none" xmlns="http://www.w3.org/2000/svg">
<path d="M10.7643 3.61987L10.7371 3.64701L3.65231 10.7158C3.56523 10.8104 3.51767 10.9348 3.51959 11.0634C3.52153 11.1941 3.5744 11.319 3.66694 11.4113C3.75948 11.5036 3.8844 11.5562 4.01513 11.5579C4.14406 11.5596 4.26862 11.5115 4.36303 11.4239L5.06667 10.7213L5.41977 10.3686L5.77308 10.7211L9.3185 14.2575C9.3186 14.2576 9.31869 14.2577 9.31879 14.2578C9.64516 14.5823 9.90416 14.9682 10.0809 15.3932C10.2577 15.8183 10.3487 16.2741 10.3487 16.7346C10.3487 17.195 10.2577 17.6508 10.0809 18.0759C9.96875 18.3457 9.82345 18.5996 9.64883 18.8321L10.3841 19.5658L14.2649 15.695L14.618 15.3429L14.9711 15.695L19.7887 20.5001H20.5V19.7925L15.6828 14.987L15.328 14.6331L15.6828 14.2791L19.6041 10.367L18.8689 9.63344C18.2656 10.0848 17.5288 10.3328 16.7665 10.3328C15.8362 10.3328 14.944 9.96347 14.2858 9.30601C14.2857 9.30593 14.2857 9.30584 14.2856 9.30576M10.7643 3.61987L14.639 8.95206L14.2856 9.30576M10.7643 3.61987C10.8055 3.5831 10.8525 3.55331 10.9034 3.53177C10.9645 3.50599 11.03 3.49254 11.0962 3.49219C11.1625 3.49185 11.2281 3.50462 11.2894 3.52977C11.3507 3.55492 11.4064 3.59194 11.4533 3.63872C11.5002 3.68549 11.5374 3.74109 11.5627 3.8023C11.588 3.86351 11.601 3.92913 11.6008 3.99538C11.6007 4.06162 11.5874 4.12718 11.5618 4.18827C11.5362 4.24936 11.4987 4.30478 11.4516 4.35133L11.4502 4.35276L10.7402 5.05976L10.3847 5.41371L10.7398 5.76801L14.2856 9.30576M10.7643 3.61987L14.2856 9.30576M10.0281 6.47605L9.67496 6.12383L9.32186 6.47607L6.48486 9.30607L6.12993 9.66012L6.48492 10.0141L10.0309 13.5501L10.0322 13.5514C10.7245 14.2366 11.1724 15.1304 11.3068 16.0951L11.4451 17.0882L12.1551 16.3801L16.4101 12.1361L17.1204 11.4276L16.127 11.287C15.1606 11.1502 14.2648 10.7033 13.5744 10.0134L13.5741 10.0131L10.0281 6.47605Z" fill="#00204A" stroke="#00204A"/>
</svg>
